# xmcd CD database file
#
# Track frame offsets:
#	150
#	14900
#	25450
#	39127
#	49855
#	63905
#	74192
#	88462
#	100182
#	113997
#	125500
#	138327
#	151867
#	168107
#	183007
#	195507
#	212192
#	226702
#	239372
#	247040
#	265790
#
# Disc length: 3840 seconds
#
# Revision: 0
# Processed by: cddbd v1.5PL3 Copyright (c) Steve Scherf et al.
# Submitted via: CDex 1.51
#
DISCID=280efe15
DTITLE=水木一郎 - アニキ自身〜30th Anniversary BEST〜 [CD1]
DYEAR=2001
DGENRE=Anime
TTITLE0=原始少年リュウが行く
TTITLE1=嵐よ叫べ
TTITLE2=ぼくらのバロム１ (with コロムビアゆりかご会)
TTITLE3=バビル２世 (with コロムビアゆりかご会)
TTITLE4=ハカイダーの歌
TTITLE5=侍ジャイアンツ
TTITLE6=がんばれロボコン (with 平山佳代子，コロムビアゆりかご会)
TTITLE7=テッカマンの歌
TTITLE8=鋼鉄ジーグのうた (with こおろぎ'73，コロムビアゆりかご会)
TTITLE9=行くぞ！ゴーダム (with ヤング・フレッシュ)
TTITLE10=猛と舞のうた (＆堀江美都子)
TTITLE11=グランプリの鷹 (with フィーリング・フリー)
TTITLE12=キャプテンハーロック
TTITLE13=ルパン三世愛のテーマ
TTITLE14=我が心のロゼッタ星
TTITLE15=燃えろ！仮面ライダー (with こおろぎ'73)
TTITLE16=ムーへ飛べ (with 杉並児童合唱団)
TTITLE17=ハーロックのバラード
TTITLE18=ちょんまげマーチ
TTITLE19=百獣合体！ガオキング
TTITLE20=燃えろ！スーパー戦隊魂!! (＆堀江美都子)
EXTD=YEAR: 2001
EXTT0=
EXTT1=
EXTT2=
EXTT3=
EXTT4=
EXTT5=
EXTT6=
EXTT7=
EXTT8=
EXTT9=
EXTT10=
EXTT11=
EXTT12=
EXTT13=
EXTT14=
EXTT15=
EXTT16=
EXTT17=
EXTT18=
EXTT19=
EXTT20=
PLAYORDER=
